<?xml version="1.0" standalone="no"?><!-- Generator: Gravit.io --><svg xmlns="http://www.w3.org/2000/svg" xmlns:xlink="http://www.w3.org/1999/xlink" style="isolation:isolate" viewBox="0 0 512 512" width="40" height="40"><defs><clipPath id="_clipPath_ewcyT1ORZLrWPrlAruWtImeoB19ibX8n"><rect width="512" height="512"/></clipPath></defs><g clip-path="url(#_clipPath_ewcyT1ORZLrWPrlAruWtImeoB19ibX8n)"><g id="Group"><g id="Group"><linearGradient id="_lgradient_0" x1="19.260140109045608%" y1="89.06260853239574%" x2="105.00817033118146%" y2="-21.09377570504116%"><stop offset="0%" stop-opacity="1" style="stop-color:rgb(131,58,180)"/><stop offset="38.4260563018387%" stop-opacity="1" style="stop-color:rgb(253,29,29)"/><stop offset="71.39115500214683%" stop-opacity="1" style="stop-color:rgb(252,176,69)"/><stop offset="100%" stop-opacity="1" style="stop-color:rgb(0,0,0)"/></linearGradient><path d=" M 256 0 C 153.755 0 70.573 83.182 70.573 185.426 C 70.573 312.314 236.512 498.593 243.577 506.461 C 250.213 513.852 261.799 513.839 268.423 506.461 C 275.488 498.593 441.427 312.314 441.427 185.426 C 441.425 83.182 358.244 0 256 0 Z  M 256 278.719 C 204.558 278.719 162.708 236.868 162.708 185.426 C 162.708 133.984 204.559 92.134 256 92.134 C 307.441 92.134 349.291 133.985 349.291 185.427 C 349.291 236.869 307.441 278.719 256 278.719 Z " fill="url(#_lgradient_0)"/></g></g></g></svg>